# xmcd CD database file
#
# Track frame offsets:
#	150
#	18153
#	38001
#	56367
#	70844
#	88232
#	104802
#	120751
#	136944
#	154961
#	172713
#
# Disc length: 2528 seconds
#
# Revision: 0
# Processed by: cddbd v1.5.1PL0 Copyright (c) Steve Scherf et al.
# Submitted via: CDex 1.51
#
DISCID=8309de0b
DTITLE=ひえろぐらふ/AQUA STYLE - 東方奇闘曲
DYEAR=2005
DGENRE=Game
TTITLE0=鋼の幻想曲（遠野的幻想物語）
TTITLE1=ビジュアル楽団（幽霊楽団）
TTITLE2=亡き幼女の為のセプテット（亡き王女の為のセプテット）
TTITLE3=これが私の妹様（U.N.オーエンは彼女なのか？）
TTITLE4=アジアンメタル（アジアンエイジア）
TTITLE5=弾幕裁判（人形裁判）
TTITLE6=星の器 〜 Casket of Star
TTITLE7=ストロベリークライシス
TTITLE8=シンデレラゲージ 〜 Kagome-Kagome
TTITLE9=不思議の国のアリス
TTITLE10=魔法少女達の百年祭
EXTD=YEAR: 2005
EXTT0=
EXTT1=
EXTT2=
EXTT3=
EXTT4=
EXTT5=
EXTT6=
EXTT7=
EXTT8=
EXTT9=
EXTT10=
PLAYORDER=
